<!-- <svg id="Layer_2" data-name="Layer 2" xmlns="http://www.w3.org/2000/svg" viewBox="0 0 148.63 178.74" width="64" height="80"> -->
<svg id="Layer_2" data-name="Layer 2" xmlns="http://www.w3.org/2000/svg" viewBox="-25 -25 200 200" width="150" height="150">
  <defs>
    <style>
      .cls-1 {
        fill: none;
        stroke: #fff;
        stroke-miterlimit: 10;
      }
      .cls-2 {
        fill: #145c15;
      }
    </style>
  </defs>
  <circle class="cls-2" cx="63.82" cy="79.37" r="85" />
  <g id="Layer_1-2" data-name="Layer 1">
    <path class="cls-1" d="M46.51,100.89C18.84,98.94.91,82.79.52,79.59c-.65-5.31,19.94-7.34,20.64-17.36.57-8.04-13.66-12.49-12.84-21.68.74-8.33,14.14-8.9,24.55-14.11S41.81.5,54.71.5c19.17,0,11.14,18.33,24.79,26.09,2.96,1.68,5.88,1.76,7.82,1.88,12.53.81,16.24-4.22,19.73-2.03,5.1,3.2-9.65,23.03-1.94,31.23,5.11,5.44,20.89-2.19,21.96,1.42,1.28,4.33-16.33,33.1-41.01,43.85"></path>
    <path class="cls-1" d="M55.85,158.24h15.94c9.35,0,2.41-71.57.47-90.04-.26-2.45-2.33-4.31-4.79-4.31h-7.91c-2.12,0-3.91,1.58-4.16,3.68-2.1,17.41-10.31,90.66.46,90.66Z"></path>
    <line class="cls-1" x1="25.65" y1="81.03" x2="53.01" y2="84.72"></line>
    <line class="cls-1" x1="44.53" y1="83.57" x2="29.17" y2="46.04"></line>
    <line class="cls-1" x1="63.82" y1="63.89" x2="55.85" y2="19.97"></line>
    <line class="cls-1" x1="71.79" y1="66.57" x2="93.26" y2="40.87"></line>
    <line class="cls-1" x1="73.53" y1="84.72" x2="105.74" y2="71.7"></line>
  </g>
</svg>
